<mxfile host="app.diagrams.net" agent="Mozilla/5.0 (Windows NT 10.0; Win64; x64) AppleWebKit/537.36 (KHTML, like Gecko) Chrome/133.0.0.0 Safari/537.36" version="26.0.16" pages="2">
  <diagram name="Page-1" id="6fxjxCnBfXmI9QACv0P9">
    <mxGraphModel dx="2736" dy="1096" grid="1" gridSize="10" guides="1" tooltips="1" connect="1" arrows="1" fold="1" page="1" pageScale="1" pageWidth="827" pageHeight="1169" math="0" shadow="0">
      <root>
        <mxCell id="0" />
        <mxCell id="1" parent="0" />
        <mxCell id="kxPH2CvyYAtExF7dnJMM-78" style="edgeStyle=orthogonalEdgeStyle;rounded=0;orthogonalLoop=1;jettySize=auto;html=1;exitX=0.5;exitY=1;exitDx=0;exitDy=0;entryX=0.5;entryY=0;entryDx=0;entryDy=0;" parent="1" source="kxPH2CvyYAtExF7dnJMM-1" target="kxPH2CvyYAtExF7dnJMM-2" edge="1">
          <mxGeometry relative="1" as="geometry">
            <Array as="points">
              <mxPoint x="414" y="280" />
              <mxPoint x="-347" y="280" />
            </Array>
          </mxGeometry>
        </mxCell>
        <mxCell id="kxPH2CvyYAtExF7dnJMM-79" style="edgeStyle=orthogonalEdgeStyle;rounded=0;orthogonalLoop=1;jettySize=auto;html=1;exitX=0.5;exitY=1;exitDx=0;exitDy=0;entryX=0.5;entryY=0;entryDx=0;entryDy=0;" parent="1" source="kxPH2CvyYAtExF7dnJMM-1" target="kxPH2CvyYAtExF7dnJMM-24" edge="1">
          <mxGeometry relative="1" as="geometry">
            <Array as="points">
              <mxPoint x="414" y="280" />
              <mxPoint x="-57" y="280" />
            </Array>
          </mxGeometry>
        </mxCell>
        <mxCell id="kxPH2CvyYAtExF7dnJMM-80" style="edgeStyle=orthogonalEdgeStyle;rounded=0;orthogonalLoop=1;jettySize=auto;html=1;exitX=0.5;exitY=1;exitDx=0;exitDy=0;" parent="1" source="kxPH2CvyYAtExF7dnJMM-1" target="kxPH2CvyYAtExF7dnJMM-37" edge="1">
          <mxGeometry relative="1" as="geometry">
            <Array as="points">
              <mxPoint x="414" y="280" />
              <mxPoint x="233" y="280" />
            </Array>
          </mxGeometry>
        </mxCell>
        <mxCell id="kxPH2CvyYAtExF7dnJMM-81" style="edgeStyle=orthogonalEdgeStyle;rounded=0;orthogonalLoop=1;jettySize=auto;html=1;exitX=0.5;exitY=1;exitDx=0;exitDy=0;entryX=0.5;entryY=0;entryDx=0;entryDy=0;" parent="1" source="kxPH2CvyYAtExF7dnJMM-1" target="kxPH2CvyYAtExF7dnJMM-48" edge="1">
          <mxGeometry relative="1" as="geometry">
            <Array as="points">
              <mxPoint x="414" y="280" />
              <mxPoint x="523" y="280" />
            </Array>
          </mxGeometry>
        </mxCell>
        <mxCell id="kxPH2CvyYAtExF7dnJMM-82" style="edgeStyle=orthogonalEdgeStyle;rounded=0;orthogonalLoop=1;jettySize=auto;html=1;exitX=0.5;exitY=1;exitDx=0;exitDy=0;entryX=0.5;entryY=0;entryDx=0;entryDy=0;" parent="1" source="kxPH2CvyYAtExF7dnJMM-1" target="kxPH2CvyYAtExF7dnJMM-58" edge="1">
          <mxGeometry relative="1" as="geometry">
            <Array as="points">
              <mxPoint x="414" y="280" />
              <mxPoint x="813" y="280" />
            </Array>
          </mxGeometry>
        </mxCell>
        <mxCell id="kxPH2CvyYAtExF7dnJMM-84" style="edgeStyle=orthogonalEdgeStyle;rounded=0;orthogonalLoop=1;jettySize=auto;html=1;exitX=0.5;exitY=1;exitDx=0;exitDy=0;entryX=0.5;entryY=0;entryDx=0;entryDy=0;" parent="1" source="kxPH2CvyYAtExF7dnJMM-1" target="kxPH2CvyYAtExF7dnJMM-69" edge="1">
          <mxGeometry relative="1" as="geometry">
            <Array as="points">
              <mxPoint x="414" y="280" />
              <mxPoint x="1130" y="280" />
            </Array>
          </mxGeometry>
        </mxCell>
        <mxCell id="kxPH2CvyYAtExF7dnJMM-1" value="&lt;font&gt;Hệ thống Website bán dịch vụ buffet&lt;/font&gt;" style="rounded=0;whiteSpace=wrap;html=1;fontSize=12;" parent="1" vertex="1">
          <mxGeometry x="284" y="160" width="259" height="80" as="geometry" />
        </mxCell>
        <mxCell id="kxPH2CvyYAtExF7dnJMM-5" value="" style="edgeStyle=orthogonalEdgeStyle;rounded=0;orthogonalLoop=1;jettySize=auto;html=1;exitX=0;exitY=0.5;exitDx=0;exitDy=0;entryX=0;entryY=0.5;entryDx=0;entryDy=0;" parent="1" source="kxPH2CvyYAtExF7dnJMM-2" target="kxPH2CvyYAtExF7dnJMM-4" edge="1">
          <mxGeometry relative="1" as="geometry">
            <Array as="points">
              <mxPoint x="-446.86" y="370" />
              <mxPoint x="-446.86" y="460" />
            </Array>
          </mxGeometry>
        </mxCell>
        <mxCell id="kxPH2CvyYAtExF7dnJMM-2" value="Quản lý khách hàng" style="whiteSpace=wrap;html=1;rounded=0;" parent="1" vertex="1">
          <mxGeometry x="-426.86" y="340" width="160" height="60" as="geometry" />
        </mxCell>
        <mxCell id="kxPH2CvyYAtExF7dnJMM-4" value="Đăng ký tài khoản" style="whiteSpace=wrap;html=1;rounded=0;" parent="1" vertex="1">
          <mxGeometry x="-416.86" y="440" width="190" height="40" as="geometry" />
        </mxCell>
        <mxCell id="kxPH2CvyYAtExF7dnJMM-6" value="Đăng nhập/Đăng xuất" style="whiteSpace=wrap;html=1;rounded=0;" parent="1" vertex="1">
          <mxGeometry x="-416.86" y="520" width="190" height="40" as="geometry" />
        </mxCell>
        <mxCell id="kxPH2CvyYAtExF7dnJMM-8" value="Cập nhật thông tin cá nhân" style="whiteSpace=wrap;html=1;rounded=0;" parent="1" vertex="1">
          <mxGeometry x="-416.86" y="600" width="190" height="40" as="geometry" />
        </mxCell>
        <mxCell id="kxPH2CvyYAtExF7dnJMM-10" style="edgeStyle=orthogonalEdgeStyle;rounded=0;orthogonalLoop=1;jettySize=auto;html=1;entryX=0;entryY=0.5;entryDx=0;entryDy=0;" parent="1" edge="1">
          <mxGeometry relative="1" as="geometry">
            <mxPoint x="-436.86" y="460" as="sourcePoint" />
            <mxPoint x="-416.86" y="540" as="targetPoint" />
            <Array as="points">
              <mxPoint x="-436.86" y="540" />
            </Array>
          </mxGeometry>
        </mxCell>
        <mxCell id="kxPH2CvyYAtExF7dnJMM-11" value="Quản lý đơn hàng" style="whiteSpace=wrap;html=1;rounded=0;" parent="1" vertex="1">
          <mxGeometry x="-416.86" y="680" width="190" height="40" as="geometry" />
        </mxCell>
        <mxCell id="kxPH2CvyYAtExF7dnJMM-19" style="edgeStyle=orthogonalEdgeStyle;rounded=0;orthogonalLoop=1;jettySize=auto;html=1;entryX=0;entryY=0.5;entryDx=0;entryDy=0;" parent="1" edge="1">
          <mxGeometry relative="1" as="geometry">
            <mxPoint x="-436.86" y="460" as="sourcePoint" />
            <mxPoint x="-416.86" y="540" as="targetPoint" />
            <Array as="points">
              <mxPoint x="-436.86" y="540" />
            </Array>
          </mxGeometry>
        </mxCell>
        <mxCell id="kxPH2CvyYAtExF7dnJMM-20" style="edgeStyle=orthogonalEdgeStyle;rounded=0;orthogonalLoop=1;jettySize=auto;html=1;entryX=0;entryY=0.5;entryDx=0;entryDy=0;" parent="1" edge="1">
          <mxGeometry relative="1" as="geometry">
            <mxPoint x="-436.86" y="540" as="sourcePoint" />
            <mxPoint x="-416.86" y="620" as="targetPoint" />
            <Array as="points">
              <mxPoint x="-436.86" y="620" />
            </Array>
          </mxGeometry>
        </mxCell>
        <mxCell id="kxPH2CvyYAtExF7dnJMM-21" style="edgeStyle=orthogonalEdgeStyle;rounded=0;orthogonalLoop=1;jettySize=auto;html=1;entryX=0;entryY=0.5;entryDx=0;entryDy=0;" parent="1" edge="1">
          <mxGeometry relative="1" as="geometry">
            <mxPoint x="-436.86" y="620" as="sourcePoint" />
            <mxPoint x="-416.86" y="700" as="targetPoint" />
            <Array as="points">
              <mxPoint x="-436.86" y="700" />
            </Array>
          </mxGeometry>
        </mxCell>
        <mxCell id="kxPH2CvyYAtExF7dnJMM-23" value="" style="edgeStyle=orthogonalEdgeStyle;rounded=0;orthogonalLoop=1;jettySize=auto;html=1;exitX=0;exitY=0.5;exitDx=0;exitDy=0;entryX=0;entryY=0.5;entryDx=0;entryDy=0;" parent="1" source="kxPH2CvyYAtExF7dnJMM-24" target="kxPH2CvyYAtExF7dnJMM-25" edge="1">
          <mxGeometry relative="1" as="geometry">
            <Array as="points">
              <mxPoint x="-156.86" y="370" />
              <mxPoint x="-156.86" y="460" />
            </Array>
          </mxGeometry>
        </mxCell>
        <mxCell id="kxPH2CvyYAtExF7dnJMM-24" value="Quản lý dịch vụ buffet" style="whiteSpace=wrap;html=1;rounded=0;" parent="1" vertex="1">
          <mxGeometry x="-136.86" y="340" width="160" height="60" as="geometry" />
        </mxCell>
        <mxCell id="kxPH2CvyYAtExF7dnJMM-25" value="Xem danh sách buffet" style="whiteSpace=wrap;html=1;rounded=0;" parent="1" vertex="1">
          <mxGeometry x="-126.86000000000001" y="440" width="190" height="40" as="geometry" />
        </mxCell>
        <mxCell id="kxPH2CvyYAtExF7dnJMM-26" value="Tìm kiếm buffet" style="whiteSpace=wrap;html=1;rounded=0;" parent="1" vertex="1">
          <mxGeometry x="-126.86000000000001" y="520" width="190" height="40" as="geometry" />
        </mxCell>
        <mxCell id="kxPH2CvyYAtExF7dnJMM-28" style="edgeStyle=orthogonalEdgeStyle;rounded=0;orthogonalLoop=1;jettySize=auto;html=1;entryX=0;entryY=0.5;entryDx=0;entryDy=0;" parent="1" edge="1">
          <mxGeometry relative="1" as="geometry">
            <mxPoint x="-146.86" y="460" as="sourcePoint" />
            <mxPoint x="-126.86000000000001" y="540" as="targetPoint" />
            <Array as="points">
              <mxPoint x="-146.86" y="540" />
            </Array>
          </mxGeometry>
        </mxCell>
        <mxCell id="kxPH2CvyYAtExF7dnJMM-29" value="Xem chi tiết buffet&amp;nbsp;&lt;div&gt;(Xem mô tả, giá, menu, thời gian)&lt;/div&gt;" style="whiteSpace=wrap;html=1;rounded=0;" parent="1" vertex="1">
          <mxGeometry x="-126.86000000000001" y="600" width="190" height="50" as="geometry" />
        </mxCell>
        <mxCell id="kxPH2CvyYAtExF7dnJMM-31" style="edgeStyle=orthogonalEdgeStyle;rounded=0;orthogonalLoop=1;jettySize=auto;html=1;entryX=0;entryY=0.5;entryDx=0;entryDy=0;" parent="1" edge="1">
          <mxGeometry relative="1" as="geometry">
            <mxPoint x="-146.86" y="460" as="sourcePoint" />
            <mxPoint x="-126.86000000000001" y="540" as="targetPoint" />
            <Array as="points">
              <mxPoint x="-146.86" y="540" />
            </Array>
          </mxGeometry>
        </mxCell>
        <mxCell id="kxPH2CvyYAtExF7dnJMM-33" style="edgeStyle=orthogonalEdgeStyle;rounded=0;orthogonalLoop=1;jettySize=auto;html=1;entryX=0;entryY=0.5;entryDx=0;entryDy=0;" parent="1" edge="1">
          <mxGeometry relative="1" as="geometry">
            <mxPoint x="-146.86" y="540" as="sourcePoint" />
            <mxPoint x="-126.86000000000001" y="620" as="targetPoint" />
            <Array as="points">
              <mxPoint x="-146.86" y="620" />
            </Array>
          </mxGeometry>
        </mxCell>
        <mxCell id="kxPH2CvyYAtExF7dnJMM-36" value="" style="edgeStyle=orthogonalEdgeStyle;rounded=0;orthogonalLoop=1;jettySize=auto;html=1;exitX=0;exitY=0.5;exitDx=0;exitDy=0;entryX=0;entryY=0.5;entryDx=0;entryDy=0;" parent="1" source="kxPH2CvyYAtExF7dnJMM-37" target="kxPH2CvyYAtExF7dnJMM-38" edge="1">
          <mxGeometry relative="1" as="geometry">
            <Array as="points">
              <mxPoint x="133.14" y="370" />
              <mxPoint x="133.14" y="460" />
            </Array>
          </mxGeometry>
        </mxCell>
        <mxCell id="kxPH2CvyYAtExF7dnJMM-37" value="Thanh toán" style="whiteSpace=wrap;html=1;rounded=0;" parent="1" vertex="1">
          <mxGeometry x="153.14" y="340" width="160" height="60" as="geometry" />
        </mxCell>
        <mxCell id="kxPH2CvyYAtExF7dnJMM-38" value="Chọn phương thức thoanh toán" style="whiteSpace=wrap;html=1;rounded=0;" parent="1" vertex="1">
          <mxGeometry x="163.14" y="440" width="190" height="40" as="geometry" />
        </mxCell>
        <mxCell id="kxPH2CvyYAtExF7dnJMM-39" value="Thanh toán onl (thẻ, ví điện tử)" style="whiteSpace=wrap;html=1;rounded=0;" parent="1" vertex="1">
          <mxGeometry x="163.14" y="520" width="190" height="40" as="geometry" />
        </mxCell>
        <mxCell id="kxPH2CvyYAtExF7dnJMM-40" value="Xác nhận thanh toán" style="whiteSpace=wrap;html=1;rounded=0;" parent="1" vertex="1">
          <mxGeometry x="163.14" y="600" width="190" height="40" as="geometry" />
        </mxCell>
        <mxCell id="kxPH2CvyYAtExF7dnJMM-41" style="edgeStyle=orthogonalEdgeStyle;rounded=0;orthogonalLoop=1;jettySize=auto;html=1;entryX=0;entryY=0.5;entryDx=0;entryDy=0;" parent="1" edge="1">
          <mxGeometry relative="1" as="geometry">
            <mxPoint x="143.14" y="460" as="sourcePoint" />
            <mxPoint x="163.14" y="540" as="targetPoint" />
            <Array as="points">
              <mxPoint x="143.14" y="540" />
            </Array>
          </mxGeometry>
        </mxCell>
        <mxCell id="kxPH2CvyYAtExF7dnJMM-42" value="Lịch sử thanh toán" style="whiteSpace=wrap;html=1;rounded=0;" parent="1" vertex="1">
          <mxGeometry x="163.14" y="680" width="190" height="40" as="geometry" />
        </mxCell>
        <mxCell id="kxPH2CvyYAtExF7dnJMM-43" style="edgeStyle=orthogonalEdgeStyle;rounded=0;orthogonalLoop=1;jettySize=auto;html=1;entryX=0;entryY=0.5;entryDx=0;entryDy=0;" parent="1" edge="1">
          <mxGeometry relative="1" as="geometry">
            <mxPoint x="143.14" y="460" as="sourcePoint" />
            <mxPoint x="163.14" y="540" as="targetPoint" />
            <Array as="points">
              <mxPoint x="143.14" y="540" />
            </Array>
          </mxGeometry>
        </mxCell>
        <mxCell id="kxPH2CvyYAtExF7dnJMM-44" style="edgeStyle=orthogonalEdgeStyle;rounded=0;orthogonalLoop=1;jettySize=auto;html=1;entryX=0;entryY=0.5;entryDx=0;entryDy=0;" parent="1" edge="1">
          <mxGeometry relative="1" as="geometry">
            <mxPoint x="143.14" y="540" as="sourcePoint" />
            <mxPoint x="163.14" y="620" as="targetPoint" />
            <Array as="points">
              <mxPoint x="143.14" y="620" />
            </Array>
          </mxGeometry>
        </mxCell>
        <mxCell id="kxPH2CvyYAtExF7dnJMM-45" style="edgeStyle=orthogonalEdgeStyle;rounded=0;orthogonalLoop=1;jettySize=auto;html=1;entryX=0;entryY=0.5;entryDx=0;entryDy=0;" parent="1" edge="1">
          <mxGeometry relative="1" as="geometry">
            <mxPoint x="143.14" y="620" as="sourcePoint" />
            <mxPoint x="163.14" y="700" as="targetPoint" />
            <Array as="points">
              <mxPoint x="143.14" y="700" />
            </Array>
          </mxGeometry>
        </mxCell>
        <mxCell id="kxPH2CvyYAtExF7dnJMM-47" value="" style="edgeStyle=orthogonalEdgeStyle;rounded=0;orthogonalLoop=1;jettySize=auto;html=1;exitX=0;exitY=0.5;exitDx=0;exitDy=0;entryX=0;entryY=0.5;entryDx=0;entryDy=0;" parent="1" source="kxPH2CvyYAtExF7dnJMM-48" target="kxPH2CvyYAtExF7dnJMM-49" edge="1">
          <mxGeometry relative="1" as="geometry">
            <Array as="points">
              <mxPoint x="423.14" y="370" />
              <mxPoint x="423.14" y="460" />
            </Array>
          </mxGeometry>
        </mxCell>
        <mxCell id="kxPH2CvyYAtExF7dnJMM-48" value="Quản lý giỏ hàng" style="whiteSpace=wrap;html=1;rounded=0;" parent="1" vertex="1">
          <mxGeometry x="443.14" y="340" width="160" height="60" as="geometry" />
        </mxCell>
        <mxCell id="kxPH2CvyYAtExF7dnJMM-49" value="Xem thông tin gói buffet" style="whiteSpace=wrap;html=1;rounded=0;" parent="1" vertex="1">
          <mxGeometry x="453.14" y="440" width="190" height="40" as="geometry" />
        </mxCell>
        <mxCell id="kxPH2CvyYAtExF7dnJMM-50" value="Xem thông tin chi tiết" style="whiteSpace=wrap;html=1;rounded=0;" parent="1" vertex="1">
          <mxGeometry x="453.14" y="520" width="190" height="40" as="geometry" />
        </mxCell>
        <mxCell id="kxPH2CvyYAtExF7dnJMM-51" value="Thanh toán" style="whiteSpace=wrap;html=1;rounded=0;" parent="1" vertex="1">
          <mxGeometry x="453.14" y="600" width="190" height="40" as="geometry" />
        </mxCell>
        <mxCell id="kxPH2CvyYAtExF7dnJMM-52" style="edgeStyle=orthogonalEdgeStyle;rounded=0;orthogonalLoop=1;jettySize=auto;html=1;entryX=0;entryY=0.5;entryDx=0;entryDy=0;" parent="1" edge="1">
          <mxGeometry relative="1" as="geometry">
            <mxPoint x="433.14" y="460" as="sourcePoint" />
            <mxPoint x="453.14" y="540" as="targetPoint" />
            <Array as="points">
              <mxPoint x="433.14" y="540" />
            </Array>
          </mxGeometry>
        </mxCell>
        <mxCell id="kxPH2CvyYAtExF7dnJMM-54" style="edgeStyle=orthogonalEdgeStyle;rounded=0;orthogonalLoop=1;jettySize=auto;html=1;entryX=0;entryY=0.5;entryDx=0;entryDy=0;" parent="1" edge="1">
          <mxGeometry relative="1" as="geometry">
            <mxPoint x="433.14" y="460" as="sourcePoint" />
            <mxPoint x="453.14" y="540" as="targetPoint" />
            <Array as="points">
              <mxPoint x="433.14" y="540" />
            </Array>
          </mxGeometry>
        </mxCell>
        <mxCell id="kxPH2CvyYAtExF7dnJMM-55" style="edgeStyle=orthogonalEdgeStyle;rounded=0;orthogonalLoop=1;jettySize=auto;html=1;entryX=0;entryY=0.5;entryDx=0;entryDy=0;" parent="1" edge="1">
          <mxGeometry relative="1" as="geometry">
            <mxPoint x="433.14" y="540" as="sourcePoint" />
            <mxPoint x="453.14" y="620" as="targetPoint" />
            <Array as="points">
              <mxPoint x="433.14" y="620" />
            </Array>
          </mxGeometry>
        </mxCell>
        <mxCell id="kxPH2CvyYAtExF7dnJMM-57" value="" style="edgeStyle=orthogonalEdgeStyle;rounded=0;orthogonalLoop=1;jettySize=auto;html=1;exitX=0;exitY=0.5;exitDx=0;exitDy=0;entryX=0;entryY=0.5;entryDx=0;entryDy=0;" parent="1" source="kxPH2CvyYAtExF7dnJMM-58" target="kxPH2CvyYAtExF7dnJMM-59" edge="1">
          <mxGeometry relative="1" as="geometry">
            <Array as="points">
              <mxPoint x="713.14" y="370" />
              <mxPoint x="713.14" y="460" />
            </Array>
          </mxGeometry>
        </mxCell>
        <mxCell id="kxPH2CvyYAtExF7dnJMM-58" value="Quản trị hệ thống" style="whiteSpace=wrap;html=1;rounded=0;" parent="1" vertex="1">
          <mxGeometry x="733.14" y="340" width="160" height="60" as="geometry" />
        </mxCell>
        <mxCell id="kxPH2CvyYAtExF7dnJMM-59" value="Quán lý người dùng" style="whiteSpace=wrap;html=1;rounded=0;" parent="1" vertex="1">
          <mxGeometry x="743.14" y="440" width="190" height="40" as="geometry" />
        </mxCell>
        <mxCell id="kxPH2CvyYAtExF7dnJMM-60" value="Quản lý buffet (CRUD)" style="whiteSpace=wrap;html=1;rounded=0;" parent="1" vertex="1">
          <mxGeometry x="743.14" y="520" width="190" height="40" as="geometry" />
        </mxCell>
        <mxCell id="kxPH2CvyYAtExF7dnJMM-62" style="edgeStyle=orthogonalEdgeStyle;rounded=0;orthogonalLoop=1;jettySize=auto;html=1;entryX=0;entryY=0.5;entryDx=0;entryDy=0;" parent="1" edge="1">
          <mxGeometry relative="1" as="geometry">
            <mxPoint x="723.14" y="460" as="sourcePoint" />
            <mxPoint x="743.14" y="540" as="targetPoint" />
            <Array as="points">
              <mxPoint x="723.14" y="540" />
            </Array>
          </mxGeometry>
        </mxCell>
        <mxCell id="kxPH2CvyYAtExF7dnJMM-63" value="Xem thống kê và báo cáo" style="whiteSpace=wrap;html=1;rounded=0;" parent="1" vertex="1">
          <mxGeometry x="743.14" y="600" width="190" height="40" as="geometry" />
        </mxCell>
        <mxCell id="kxPH2CvyYAtExF7dnJMM-64" style="edgeStyle=orthogonalEdgeStyle;rounded=0;orthogonalLoop=1;jettySize=auto;html=1;entryX=0;entryY=0.5;entryDx=0;entryDy=0;" parent="1" edge="1">
          <mxGeometry relative="1" as="geometry">
            <mxPoint x="723.14" y="460" as="sourcePoint" />
            <mxPoint x="743.14" y="540" as="targetPoint" />
            <Array as="points">
              <mxPoint x="723.14" y="540" />
            </Array>
          </mxGeometry>
        </mxCell>
        <mxCell id="kxPH2CvyYAtExF7dnJMM-66" style="edgeStyle=orthogonalEdgeStyle;rounded=0;orthogonalLoop=1;jettySize=auto;html=1;entryX=0;entryY=0.5;entryDx=0;entryDy=0;" parent="1" edge="1">
          <mxGeometry relative="1" as="geometry">
            <mxPoint x="723.14" y="540" as="sourcePoint" />
            <mxPoint x="743.14" y="620" as="targetPoint" />
            <Array as="points">
              <mxPoint x="723.14" y="620" />
            </Array>
          </mxGeometry>
        </mxCell>
        <mxCell id="kxPH2CvyYAtExF7dnJMM-68" value="" style="edgeStyle=orthogonalEdgeStyle;rounded=0;orthogonalLoop=1;jettySize=auto;html=1;exitX=0;exitY=0.5;exitDx=0;exitDy=0;entryX=0;entryY=0.5;entryDx=0;entryDy=0;" parent="1" source="kxPH2CvyYAtExF7dnJMM-69" target="kxPH2CvyYAtExF7dnJMM-70" edge="1">
          <mxGeometry relative="1" as="geometry">
            <Array as="points">
              <mxPoint x="1030" y="370" />
              <mxPoint x="1030" y="460" />
            </Array>
          </mxGeometry>
        </mxCell>
        <mxCell id="kxPH2CvyYAtExF7dnJMM-69" value="Hỗ trợ khách hàng" style="whiteSpace=wrap;html=1;rounded=0;" parent="1" vertex="1">
          <mxGeometry x="1050" y="340" width="160" height="60" as="geometry" />
        </mxCell>
        <mxCell id="kxPH2CvyYAtExF7dnJMM-70" value="FAQ" style="whiteSpace=wrap;html=1;rounded=0;" parent="1" vertex="1">
          <mxGeometry x="1060" y="440" width="190" height="40" as="geometry" />
        </mxCell>
        <mxCell id="kxPH2CvyYAtExF7dnJMM-71" value="Gửi yêu cầu hỗ trợ" style="whiteSpace=wrap;html=1;rounded=0;" parent="1" vertex="1">
          <mxGeometry x="1060" y="520" width="190" height="40" as="geometry" />
        </mxCell>
        <mxCell id="kxPH2CvyYAtExF7dnJMM-72" value="Đánh giá và phản hồi dịch vụ" style="whiteSpace=wrap;html=1;rounded=0;" parent="1" vertex="1">
          <mxGeometry x="1060" y="600" width="190" height="40" as="geometry" />
        </mxCell>
        <mxCell id="kxPH2CvyYAtExF7dnJMM-73" style="edgeStyle=orthogonalEdgeStyle;rounded=0;orthogonalLoop=1;jettySize=auto;html=1;entryX=0;entryY=0.5;entryDx=0;entryDy=0;" parent="1" edge="1">
          <mxGeometry relative="1" as="geometry">
            <mxPoint x="1040" y="460" as="sourcePoint" />
            <mxPoint x="1060" y="540" as="targetPoint" />
            <Array as="points">
              <mxPoint x="1040" y="540" />
            </Array>
          </mxGeometry>
        </mxCell>
        <mxCell id="kxPH2CvyYAtExF7dnJMM-75" style="edgeStyle=orthogonalEdgeStyle;rounded=0;orthogonalLoop=1;jettySize=auto;html=1;entryX=0;entryY=0.5;entryDx=0;entryDy=0;" parent="1" edge="1">
          <mxGeometry relative="1" as="geometry">
            <mxPoint x="1040" y="460" as="sourcePoint" />
            <mxPoint x="1060" y="540" as="targetPoint" />
            <Array as="points">
              <mxPoint x="1040" y="540" />
            </Array>
          </mxGeometry>
        </mxCell>
        <mxCell id="kxPH2CvyYAtExF7dnJMM-76" style="edgeStyle=orthogonalEdgeStyle;rounded=0;orthogonalLoop=1;jettySize=auto;html=1;entryX=0;entryY=0.5;entryDx=0;entryDy=0;" parent="1" edge="1">
          <mxGeometry relative="1" as="geometry">
            <mxPoint x="1040" y="540" as="sourcePoint" />
            <mxPoint x="1060" y="620" as="targetPoint" />
            <Array as="points">
              <mxPoint x="1040" y="620" />
            </Array>
          </mxGeometry>
        </mxCell>
      </root>
    </mxGraphModel>
  </diagram>
  <diagram id="3HoZQ9hC2I4Mwi0j9YYm" name="Page-2">
    <mxGraphModel dx="1050" dy="603" grid="1" gridSize="10" guides="1" tooltips="1" connect="1" arrows="1" fold="1" page="1" pageScale="1" pageWidth="827" pageHeight="1169" math="0" shadow="0">
      <root>
        <mxCell id="0" />
        <mxCell id="1" parent="0" />
        <mxCell id="8d9wxDbXgbfk6hxwYdIL-1" value="" style="swimlane;startSize=0;" vertex="1" parent="1">
          <mxGeometry x="160" width="440" height="720" as="geometry" />
        </mxCell>
        <mxCell id="htfNRT4M_sAcQghFB3x5-1" value="Quản trị hệ thống" style="ellipse;whiteSpace=wrap;html=1;" vertex="1" parent="8d9wxDbXgbfk6hxwYdIL-1">
          <mxGeometry x="144" y="30" width="140" height="70" as="geometry" />
        </mxCell>
        <mxCell id="-yu9Oq6Vg313ZinzExgX-1" value="Quản lý khách hàng" style="ellipse;whiteSpace=wrap;html=1;" vertex="1" parent="8d9wxDbXgbfk6hxwYdIL-1">
          <mxGeometry x="143" y="140" width="140" height="70" as="geometry" />
        </mxCell>
        <mxCell id="4R9Lv8w1F-sSEXEE39St-1" value="Quản lý dịch vụ buffet" style="ellipse;whiteSpace=wrap;html=1;" vertex="1" parent="8d9wxDbXgbfk6hxwYdIL-1">
          <mxGeometry x="143" y="260" width="140" height="70" as="geometry" />
        </mxCell>
        <mxCell id="nIyIQMrr9tabKOPmQGv9-2" value="Thanh toán" style="ellipse;whiteSpace=wrap;html=1;" vertex="1" parent="8d9wxDbXgbfk6hxwYdIL-1">
          <mxGeometry x="144" y="500" width="140" height="70" as="geometry" />
        </mxCell>
        <mxCell id="nNtAodCRjd_VNsIQh9Sx-1" value="Quản lý giỏ hàng" style="ellipse;whiteSpace=wrap;html=1;" vertex="1" parent="8d9wxDbXgbfk6hxwYdIL-1">
          <mxGeometry x="144" y="380" width="140" height="70" as="geometry" />
        </mxCell>
        <mxCell id="nNtAodCRjd_VNsIQh9Sx-2" value="Hỗ trợ khách hàng" style="ellipse;whiteSpace=wrap;html=1;" vertex="1" parent="8d9wxDbXgbfk6hxwYdIL-1">
          <mxGeometry x="144" y="620" width="140" height="70" as="geometry" />
        </mxCell>
        <mxCell id="8d9wxDbXgbfk6hxwYdIL-3" style="rounded=0;orthogonalLoop=1;jettySize=auto;html=1;entryX=0;entryY=0.5;entryDx=0;entryDy=0;endArrow=none;startFill=0;" edge="1" parent="1" source="8d9wxDbXgbfk6hxwYdIL-2" target="htfNRT4M_sAcQghFB3x5-1">
          <mxGeometry relative="1" as="geometry" />
        </mxCell>
        <mxCell id="8d9wxDbXgbfk6hxwYdIL-2" value="Admin" style="shape=umlActor;verticalLabelPosition=bottom;verticalAlign=top;html=1;outlineConnect=0;" vertex="1" parent="1">
          <mxGeometry x="50" y="130" width="40" height="75" as="geometry" />
        </mxCell>
        <mxCell id="nNtAodCRjd_VNsIQh9Sx-3" value="User" style="shape=umlActor;verticalLabelPosition=bottom;verticalAlign=top;html=1;" vertex="1" parent="1">
          <mxGeometry x="760" y="360" width="40" height="70" as="geometry" />
        </mxCell>
        <mxCell id="nNtAodCRjd_VNsIQh9Sx-4" style="rounded=0;orthogonalLoop=1;jettySize=auto;html=1;endArrow=none;startFill=0;exitX=1;exitY=0.5;exitDx=0;exitDy=0;" edge="1" parent="1" source="-yu9Oq6Vg313ZinzExgX-1" target="nNtAodCRjd_VNsIQh9Sx-3">
          <mxGeometry relative="1" as="geometry">
            <mxPoint x="90" y="90" as="sourcePoint" />
            <mxPoint x="730" y="320" as="targetPoint" />
          </mxGeometry>
        </mxCell>
        <mxCell id="nNtAodCRjd_VNsIQh9Sx-5" style="rounded=0;orthogonalLoop=1;jettySize=auto;html=1;endArrow=none;startFill=0;exitX=1;exitY=0.5;exitDx=0;exitDy=0;" edge="1" parent="1" source="4R9Lv8w1F-sSEXEE39St-1" target="nNtAodCRjd_VNsIQh9Sx-3">
          <mxGeometry relative="1" as="geometry">
            <mxPoint x="453" y="185" as="sourcePoint" />
            <mxPoint x="730" y="320" as="targetPoint" />
          </mxGeometry>
        </mxCell>
        <mxCell id="nNtAodCRjd_VNsIQh9Sx-6" style="rounded=0;orthogonalLoop=1;jettySize=auto;html=1;endArrow=none;startFill=0;exitX=1;exitY=0.5;exitDx=0;exitDy=0;" edge="1" parent="1" source="nNtAodCRjd_VNsIQh9Sx-1" target="nNtAodCRjd_VNsIQh9Sx-3">
          <mxGeometry relative="1" as="geometry">
            <mxPoint x="453" y="305" as="sourcePoint" />
            <mxPoint x="730" y="320" as="targetPoint" />
          </mxGeometry>
        </mxCell>
        <mxCell id="nNtAodCRjd_VNsIQh9Sx-7" style="rounded=0;orthogonalLoop=1;jettySize=auto;html=1;endArrow=none;startFill=0;exitX=1;exitY=0.5;exitDx=0;exitDy=0;" edge="1" parent="1" source="nIyIQMrr9tabKOPmQGv9-2" target="nNtAodCRjd_VNsIQh9Sx-3">
          <mxGeometry relative="1" as="geometry">
            <mxPoint x="454" y="425" as="sourcePoint" />
            <mxPoint x="730" y="320" as="targetPoint" />
          </mxGeometry>
        </mxCell>
        <mxCell id="nNtAodCRjd_VNsIQh9Sx-8" style="rounded=0;orthogonalLoop=1;jettySize=auto;html=1;endArrow=none;startFill=0;exitX=1;exitY=0.5;exitDx=0;exitDy=0;" edge="1" parent="1" source="nNtAodCRjd_VNsIQh9Sx-2" target="nNtAodCRjd_VNsIQh9Sx-3">
          <mxGeometry relative="1" as="geometry">
            <mxPoint x="454" y="545" as="sourcePoint" />
            <mxPoint x="730" y="320" as="targetPoint" />
          </mxGeometry>
        </mxCell>
      </root>
    </mxGraphModel>
  </diagram>
</mxfile>
